<?xml version="1.0" standalone="no"?>
<!DOCTYPE svg PUBLIC "-//W3C//DTD SVG 20010904//EN"
 "http://www.w3.org/TR/2001/REC-SVG-20010904/DTD/svg10.dtd">
<svg version="1.0" xmlns="http://www.w3.org/2000/svg"
 width="192.000000pt" height="192.000000pt" viewBox="0 0 192.000000 192.000000"
 preserveAspectRatio="xMidYMid meet">

<g transform="translate(0.000000,192.000000) scale(0.100000,-0.100000)"
fill="#000000" stroke="none">
<path d="M1310 1720 c-11 -7 1 -10 40 -9 40 0 49 3 35 9 -27 12 -57 12 -75 0z"/>
<path d="M1410 1726 c0 -2 9 -6 20 -9 11 -3 20 -1 20 4 0 5 -9 9 -20 9 -11 0
-20 -2 -20 -4z"/>
<path d="M893 1708 c-46 -22 -13 -87 40 -79 25 4 21 -26 -5 -33 -13 -3 -25 -1
-26 5 -2 5 -18 7 -38 3 -21 -4 -40 -2 -49 6 -12 10 -16 9 -21 -4 -4 -9 -4 -19
-2 -21 11 -11 117 -12 158 -2 42 11 45 14 39 37 -3 14 -4 40 -1 58 4 26 1 32
-14 32 -11 0 -28 2 -39 5 -11 2 -30 -1 -42 -7z"/>
<path d="M808 1703 c7 -3 16 -2 19 1 4 3 -2 6 -13 5 -11 0 -14 -3 -6 -6z"/>
<path d="M328 1693 c6 -2 18 -2 25 0 6 3 1 5 -13 5 -14 0 -19 -2 -12 -5z"/>
<path d="M666 1684 c-7 -19 1 -34 19 -34 7 0 15 -5 17 -12 6 -16 28 -1 28 19
0 8 -9 17 -20 20 -11 3 -20 9 -20 14 0 15 -17 10 -24 -7z"/>
<path d="M400 1672 c0 -11 10 -26 23 -35 19 -13 24 -13 36 0 11 13 11 17 0 28
-8 7 -24 16 -36 20 -18 5 -23 2 -23 -13z"/>
<path d="M170 1641 c0 -12 5 -21 10 -21 6 0 10 6 10 14 0 8 -4 18 -10 21 -5 3
-10 -3 -10 -14z"/>
<path d="M110 1624 c0 -8 5 -12 10 -9 6 3 10 10 10 16 0 5 -4 9 -10 9 -5 0
-10 -7 -10 -16z"/>
<path d="M1286 1625 c-21 -16 -13 -35 15 -35 14 0 19 7 19 25 0 28 -7 30 -34
10z"/>
<path d="M57 1606 c-3 -8 1 -17 9 -20 9 -4 14 1 14 14 0 23 -15 27 -23 6z"/>
<path d="M325 1610 c-10 -16 -3 -20 52 -27 33 -3 53 -1 57 6 9 13 -23 28 -33
15 -9 -13 -36 -11 -54 4 -11 9 -17 10 -22 2z"/>
<path d="M590 1606 c0 -15 39 -26 78 -23 12 1 21 7 20 12 -2 6 -20 9 -40 7
-22 -2 -38 1 -38 7 0 6 -4 11 -10 11 -5 0 -10 -6 -10 -14z"/>
<path d="M1610 1600 c0 -11 5 -20 10 -20 6 0 10 9 10 20 0 11 -4 20 -10 20 -5
0 -10 -9 -10 -20z"/>
<path d="M135 1599 c-3 -4 -14 -5 -25 -2 -11 3 -20 0 -20 -6 0 -7 20 -11 53
-10 28 1 44 3 34 6 -9 2 -15 8 -13 12 3 4 -2 8 -10 8 -8 0 -17 -4 -19 -8z"/>
<path d="M1767 1604 c-3 -3 -3 -13 0 -21 5 -12 7 -12 14 -1 15 23 4 40 -14 22z"/>
<path d="M1150 1596 c0 -9 40 -13 46 -5 3 5 -6 9 -20 9 -14 0 -26 -2 -26 -4z"/>
<path d="M1688 1573 c12 -2 32 -2 45 0 12 2 2 4 -23 4 -25 0 -35 -2 -22 -4z"/>
<path d="M1843 1573 c15 -2 39 -2 55 0 15 2 2 4 -28 4 -30 0 -43 -2 -27 -4z"/>
<path d="M215 802 c0 -86 4 -123 14 -135 17 -22 39 -21 63 0 10 9 28 17 41 18
13 1 23 9 25 21 2 10 8 29 14 41 12 24 3 93 -12 93 -6 0 -10 -4 -10 -10 0 -5
-6 -10 -13 -10 -7 0 -18 -9 -25 -20 -17 -28 -30 -25 -38 7 -4 15 -16 36 -26
47 -24 26 -23 36 3 36 18 0 19 2 9 15 -7 8 -20 15 -29 15 -14 0 -16 -15 -16
-118z"/>
<path d="M1410 912 c0 -5 -26 -15 -57 -22 -51 -11 -66 -20 -123 -78 -39 -38
-77 -67 -94 -71 -31 -7 -45 -39 -23 -53 9 -6 9 -8 0 -8 -7 0 -13 -6 -13 -14 0
-8 -6 -16 -12 -19 -10 -3 -8 -9 5 -24 21 -24 22 -53 1 -53 -11 0 -13 -6 -9
-19 3 -10 -2 -38 -11 -61 -15 -38 -16 -43 -2 -51 9 -5 25 -25 37 -45 12 -19
16 -32 9 -28 -7 4 -8 3 -4 -4 4 -7 13 -12 21 -12 26 0 106 -40 128 -64 l22
-24 33 29 c17 16 32 31 32 33 0 2 -17 2 -39 -1 -35 -5 -38 -3 -37 18 1 13 -5
29 -13 35 -15 12 -6 58 10 49 23 -15 6 26 -21 48 -35 30 -37 37 -10 37 23 0
27 15 6 23 -25 10 -54 -3 -49 -23 6 -21 -16 -38 -27 -21 -4 7 -5 23 -3 36 3
12 -3 34 -12 48 -19 30 -8 41 28 28 14 -5 28 -7 32 -3 4 4 5 0 3 -8 -5 -21 77
-49 94 -32 10 10 9 20 -8 51 -20 37 -20 38 -2 33 11 -3 21 -17 25 -33 3 -16 9
-29 14 -29 14 0 32 -42 21 -49 -14 -9 -24 -54 -15 -67 11 -16 53 -28 53 -15 0
5 -5 13 -10 16 -8 5 -7 11 0 20 7 8 8 20 4 27 -5 7 -9 21 -9 32 -1 10 -9 24
-18 31 -10 7 -17 15 -17 18 0 4 -14 29 -31 57 -53 87 -25 130 76 114 48 -7 77
2 54 17 -10 6 -5 9 14 9 17 0 26 4 22 11 -5 7 4 9 24 7 17 -2 31 -8 30 -12 0
-5 5 -12 12 -17 10 -6 10 -11 -2 -26 -13 -16 -12 -17 3 -5 15 12 18 10 23 -15
4 -15 11 -37 16 -48 l9 -20 -4 20 c-19 96 -31 120 -88 177 -52 51 -98 74 -98
50z m55 -92 c-3 -5 -11 -10 -16 -10 -6 0 -7 5 -4 10 3 6 11 10 16 10 6 0 7 -4
4 -10z m-238 -124 c-3 -8 5 -27 19 -43 13 -15 24 -36 24 -45 0 -26 -7 -22 -25
12 -8 16 -24 34 -34 40 -18 9 -19 8 -11 -20 10 -34 1 -39 -22 -12 -21 23 -19
51 4 85 17 24 21 25 35 12 8 -9 13 -22 10 -29z m-77 -47 c0 -11 -4 -18 -10
-14 -5 3 -7 12 -3 20 7 21 13 19 13 -6z m55 -289 c19 -8 19 -9 -2 -9 -12 -1
-25 4 -28 9 -7 12 2 12 30 0z m50 -20 c3 -5 2 -10 -4 -10 -5 0 -13 5 -16 10
-3 6 -2 10 4 10 5 0 13 -4 16 -10z"/>
<path d="M537 829 c-25 -27 -26 -29 -8 -29 13 0 27 12 36 30 19 37 9 37 -28
-1z"/>
<path d="M439 770 c-6 -77 -5 -120 2 -120 5 0 16 -12 24 -27 14 -24 16 -25 12
-6 -6 29 8 39 22 16 9 -15 10 -12 10 17 -1 60 -13 85 -38 84 -14 -1 -20 3 -18
11 3 6 1 18 -4 26 -7 12 -9 12 -10 -1z"/>
<path d="M730 719 c0 -6 -9 -8 -22 -4 -16 4 -19 3 -10 -3 11 -7 11 -12 -2 -25
-15 -15 -22 -47 -10 -47 3 0 12 7 20 15 17 17 64 20 64 5 0 -5 6 -10 13 -10
40 0 107 -127 107 -202 0 -20 5 -40 11 -44 14 -8 60 46 54 64 -3 7 4 21 15 32
11 11 16 20 12 20 -4 0 -19 21 -32 48 l-24 47 -6 -45 c-5 -35 -8 -41 -14 -25
-4 11 -14 35 -22 53 -8 18 -14 42 -14 53 0 21 -10 27 -50 31 -14 2 -36 13 -50
26 -27 24 -40 28 -40 11z"/>
<path d="M1550 719 c0 -5 5 -7 10 -4 6 3 10 8 10 11 0 2 -4 4 -10 4 -5 0 -10
-5 -10 -11z"/>
<path d="M1020 606 c0 -28 15 -42 26 -24 4 6 2 14 -5 16 -9 3 -9 7 0 18 9 11
8 14 -5 14 -10 0 -16 -9 -16 -24z"/>
<path d="M975 578 c7 -35 21 -55 30 -46 6 6 -22 78 -31 78 -3 0 -3 -15 1 -32z"/>
<path d="M1515 499 c-20 -22 -34 -43 -31 -46 5 -5 52 45 69 73 15 25 0 14 -38
-27z"/>
<path d="M1297 440 c-3 -13 -2 -30 2 -38 7 -12 9 -11 13 5 3 10 2 27 -2 38 -6
17 -7 17 -13 -5z"/>
<path d="M699 443 c-1 -5 -1 -12 0 -17 1 -5 -5 -6 -14 -2 -10 3 -14 2 -10 -5
9 -14 28 -6 31 14 1 9 0 17 -2 17 -2 0 -5 -3 -5 -7z"/>
<path d="M636 384 c-23 -23 -20 -30 4 -9 11 10 20 20 20 22 0 7 -9 2 -24 -13z"/>
<path d="M740 384 c0 -8 5 -12 10 -9 6 3 10 10 10 16 0 5 -4 9 -10 9 -5 0 -10
-7 -10 -16z"/>
<path d="M844 362 c7 -11 -15 -72 -26 -72 -4 0 -8 -11 -8 -25 0 -14 -5 -25
-11 -25 -6 0 4 -15 23 -33 37 -37 48 -37 48 -1 0 14 4 22 10 19 6 -3 10 -1 10
4 0 6 -4 11 -9 11 -11 0 -3 66 11 93 11 22 11 22 -25 31 -16 4 -26 3 -23 -2z"/>
<path d="M1051 283 c-13 -15 -12 -16 10 -10 13 4 36 7 52 7 15 0 27 5 27 10 0
17 -74 11 -89 -7z"/>
<path d="M889 152 c11 -8 11 -10 0 -15 -10 -4 -8 -6 4 -6 21 -1 18 21 -4 27
-12 3 -12 2 0 -6z"/>
</g>
</svg>
